<svg width="24" height="24" viewBox="0 0 24 24" fill="none" xmlns="http://www.w3.org/2000/svg">
<path fill-rule="evenodd" clip-rule="evenodd" d="M13 12C13 12.553 12.552 13 12 13C11.448 13 11 12.553 11 12V2C11 1.447 11.448 1 12 1C12.552 1 13 1.447 13 2V12ZM15.239 3.54168C15.492 3.05068 16.096 2.85968 16.586 3.11168C19.925 4.83868 22 8.24368 22 12.0007C22 17.5137 17.514 22.0007 12 22.0007C6.486 22.0007 2 17.5137 2 12.0007C2 8.24368 4.075 4.83868 7.415 3.11168C7.904 2.85868 8.508 3.04968 8.762 3.54168C9.016 4.03168 8.823 4.63468 8.333 4.88868C5.66 6.26968 4 8.99468 4 12.0007C4 16.4117 7.589 20.0007 12 20.0007C16.411 20.0007 20 16.4117 20 12.0007C20 8.99468 18.34 6.26968 15.668 4.88868C15.177 4.63468 14.985 4.03168 15.239 3.54168Z" fill="#C7CADB"/>
</svg>
