<svg width="31" height="22" viewBox="0 0 31 22" fill="none" xmlns="http://www.w3.org/2000/svg">
<path d="M27.1749 2.74716C23.3762 -0.0786367 19.7371 0.000563436 19.7371 0.000563436L19.3651 0.422933C23.881 1.77004 25.9796 3.75064 25.9796 3.75064C19.5187 0.213963 11.2891 0.239303 4.56883 3.75064C4.56883 3.75064 6.74698 1.66425 11.5286 0.317142L11.2629 0.000223162C11.2629 0.000223162 7.65023 -0.0789791 3.82505 2.74681C3.82505 2.74681 0 9.58721 0 18.0121C0 18.0121 2.23131 21.8151 8.10214 22C8.10214 22 9.08507 20.8379 9.88188 19.8344C6.50805 18.8309 5.23314 16.7445 5.23314 16.7445C7.35263 18.063 9.49587 18.8884 12.1665 19.412C16.5117 20.3013 21.9165 19.387 25.9531 16.7445C25.9531 16.7445 24.625 18.8839 21.1451 19.861C21.942 20.8382 22.8984 21.9737 22.8984 21.9737C28.7687 21.7891 31 17.9861 31 18.0124C31 9.58756 27.1749 2.74716 27.1749 2.74716ZM10.5456 15.5565C9.05797 15.5565 7.83623 14.2624 7.83623 12.6512C7.94484 8.79304 13.1739 8.80497 13.2554 12.6512C13.2551 14.2624 12.0598 15.5565 10.5456 15.5565ZM20.2416 15.5565C18.7539 15.5565 17.5321 14.2624 17.5321 12.6512C17.6515 8.80043 22.8152 8.79884 22.9514 12.6512C22.951 14.2624 21.7557 15.5565 20.2416 15.5565Z" fill="#DCA536"/>
</svg>
