<svg width="16" height="12" viewBox="0 0 16 12" fill="none" xmlns="http://www.w3.org/2000/svg">
<path d="M0.5 0.999959C0.5 0.539722 0.873096 0.166626 1.33333 0.166626H14.6667C15.1269 0.166626 15.5 0.539722 15.5 0.999959C15.5 1.4602 15.1269 1.83329 14.6667 1.83329H1.33333C0.873096 1.83329 0.5 1.4602 0.5 0.999959Z" fill="black"/>
<path d="M0.5 5.99996C0.5 5.53972 0.873096 5.16663 1.33333 5.16663H14.6667C15.1269 5.16663 15.5 5.53972 15.5 5.99996C15.5 6.4602 15.1269 6.83329 14.6667 6.83329H1.33333C0.873096 6.83329 0.5 6.4602 0.5 5.99996Z" fill="black"/>
<path d="M1.33333 10.1666C0.873096 10.1666 0.5 10.5397 0.5 11C0.5 11.4602 0.873096 11.8333 1.33333 11.8333H14.6667C15.1269 11.8333 15.5 11.4602 15.5 11C15.5 10.5397 15.1269 10.1666 14.6667 10.1666H1.33333Z" fill="black"/>
</svg>
