<svg width="18" height="18" viewBox="0 0 18 18" fill="none" xmlns="http://www.w3.org/2000/svg">
<path fill-rule="evenodd" clip-rule="evenodd" d="M2 0H6C7.103 0 8 0.897 8 2V6C8 7.103 7.103 8 6 8H2C0.897 8 0 7.103 0 6V2C0 0.897 0.897 0 2 0ZM12 0H16C17.103 0 18 0.897 18 2V6C18 7.103 17.103 8 16 8H12C10.897 8 10 7.103 10 6V2C10 0.897 10.897 0 12 0ZM6 10H2C0.897 10 0 10.897 0 12V16C0 17.103 0.897 18 2 18H6C7.103 18 8 17.103 8 16V12C8 10.897 7.103 10 6 10ZM12 10H16C17.103 10 18 10.897 18 12V16C18 17.103 17.103 18 16 18H12C10.897 18 10 17.103 10 16V12C10 10.897 10.897 10 12 10Z" fill="#C7CADB"/>
</svg>
