<svg width="40" height="24" viewBox="0 0 40 24" fill="none" xmlns="http://www.w3.org/2000/svg">
<g clip-path="url(#clip0)">
<path d="M8.19166 4.63237C14.7132 -1.48602 25.2866 -1.48602 31.8081 4.63237L32.593 5.36873C32.919 5.67465 32.919 6.17064 32.593 6.47656L29.9081 8.9955C29.745 9.14846 29.4807 9.14846 29.3177 8.9955L28.2376 7.98218C23.688 3.71384 16.3117 3.71384 11.7622 7.98218L10.6055 9.06736C10.4425 9.22032 10.1781 9.22032 10.0151 9.06736L7.33019 6.54842C7.00411 6.2425 7.00411 5.74651 7.33019 5.44059L8.19166 4.63237ZM37.3607 9.84179L39.7503 12.0837C40.0764 12.3896 40.0764 12.8856 39.7503 13.1915L28.9756 23.3003C28.6495 23.6063 28.1208 23.6063 27.7948 23.3003C27.7948 23.3003 27.7948 23.3003 27.7948 23.3003L20.1475 16.1258C20.066 16.0493 19.9338 16.0493 19.8523 16.1258C19.8523 16.1258 19.8523 16.1258 19.8523 16.1258L12.2053 23.3003C11.8792 23.6063 11.3505 23.6063 11.0244 23.3003C11.0244 23.3003 11.0244 23.3003 11.0244 23.3003L0.249439 13.1914C-0.0766359 12.8854 -0.0766359 12.3894 0.249439 12.0835L2.639 9.84167C2.96508 9.53575 3.49375 9.53575 3.81983 9.84167L11.4672 17.0163C11.5487 17.0928 11.6808 17.0928 11.7624 17.0163C11.7624 17.0163 11.7624 17.0163 11.7624 17.0163L19.4093 9.84167C19.7354 9.53574 20.2641 9.53573 20.5901 9.84164C20.5902 9.84164 20.5902 9.84165 20.5902 9.84165L28.2375 17.0163C28.319 17.0928 28.4512 17.0928 28.5327 17.0163L36.1799 9.84179C36.506 9.53587 37.0346 9.53587 37.3607 9.84179Z" fill="#3B99FC"/>
</g>
<defs>
<clipPath id="clip0">
<rect width="40" height="23.6364" fill="white"/>
</clipPath>
</defs>
</svg>
