<svg width="24" height="24" viewBox="0 0 24 24" fill="none" xmlns="http://www.w3.org/2000/svg">
<path d="M12 0C9.62663 0 7.30655 0.703788 5.33316 2.02236C3.35977 3.34094 1.8217 5.21509 0.913451 7.4078C0.00519943 9.60051 -0.232441 12.0133 0.230582 14.3411C0.693605 16.6689 1.83649 18.8071 3.51472 20.4853C5.19295 22.1635 7.33115 23.3064 9.65892 23.7694C11.9867 24.2324 14.3995 23.9948 16.5922 23.0866C18.7849 22.1783 20.6591 20.6402 21.9776 18.6668C23.2962 16.6935 24 14.3734 24 12C24 8.8174 22.7357 5.76516 20.4853 3.51472C18.2348 1.26428 15.1826 0 12 0ZM10 5.15C10 4.75444 10.1173 4.36776 10.3371 4.03886C10.5568 3.70996 10.8692 3.45362 11.2346 3.30224C11.6001 3.15087 12.0022 3.11126 12.3902 3.18843C12.7781 3.2656 13.1345 3.45608 13.4142 3.73579C13.6939 4.01549 13.8844 4.37186 13.9616 4.75982C14.0387 5.14778 13.9991 5.54991 13.8478 5.91537C13.6964 6.28082 13.44 6.59318 13.1111 6.81294C12.7822 7.0327 12.3956 7.15 12 7.15C11.7291 7.16356 11.4582 7.12187 11.2039 7.02745C10.9496 6.93303 10.7171 6.78786 10.5207 6.60078C10.3243 6.41369 10.1679 6.1886 10.0612 5.93919C9.95452 5.68978 9.89967 5.42127 9.90001 5.15H10ZM17 18C17 18.2652 16.8946 18.5196 16.7071 18.7071C16.5196 18.8946 16.2652 19 16 19H9.00001C8.73479 19 8.48044 18.8946 8.2929 18.7071C8.10536 18.5196 8.00001 18.2652 8.00001 18C8.00001 17.7348 8.10536 17.4804 8.2929 17.2929C8.48044 17.1054 8.73479 17 9.00001 17H11V11H10C9.73479 11 9.48044 10.8946 9.2929 10.7071C9.10536 10.5196 9.00001 10.2652 9.00001 10C9.00001 9.73478 9.10536 9.48043 9.2929 9.29289C9.48044 9.10536 9.73479 9 10 9H14V17H16C16.2652 17 16.5196 17.1054 16.7071 17.2929C16.8946 17.4804 17 17.7348 17 18Z" fill="#BF8E31"/>
</svg>
