<svg width="25" height="31" viewBox="0 0 25 31" fill="none" xmlns="http://www.w3.org/2000/svg">
<path d="M12.4763 0.0527344C9.16868 0.0563732 5.9976 1.37183 3.65867 3.71052C1.31974 6.04921 0.00397027 9.22016 0 12.5277C0 15.7402 2.4875 20.7677 7.39375 27.4702C7.97783 28.2704 8.74257 28.9213 9.62576 29.3701C10.5089 29.8189 11.4856 30.0528 12.4763 30.0528C13.4669 30.0528 14.4436 29.8189 15.3268 29.3701C16.2099 28.9213 16.9747 28.2704 17.5588 27.4702C22.465 20.7677 24.9525 15.7402 24.9525 12.5277C24.9485 9.22016 23.6328 6.04921 21.2938 3.71052C18.9549 1.37183 15.7838 0.0563732 12.4763 0.0527344ZM12.4763 17.5002C11.4873 17.5002 10.5206 17.207 9.6984 16.6576C8.87616 16.1082 8.23529 15.3273 7.85685 14.4137C7.47842 13.5 7.3794 12.4947 7.57233 11.5248C7.76525 10.5549 8.24146 9.66396 8.94072 8.9647C9.63998 8.26544 10.5309 7.78923 11.5008 7.59631C12.4707 7.40338 13.476 7.5024 14.3897 7.88084C15.3033 8.25927 16.0842 8.90014 16.6336 9.72238C17.183 10.5446 17.4763 11.5113 17.4763 12.5002C17.4763 13.8263 16.9495 15.0981 16.0118 16.0358C15.0741 16.9734 13.8023 17.5002 12.4763 17.5002Z" fill="white"/>
</svg>
