<svg width="199" height="33" viewBox="0 0 199 33" fill="none" xmlns="http://www.w3.org/2000/svg">
<g clip-path="url(#clip0_1073_8817)">
<path d="M39.3461 33.0003H42.9047V17.7627C42.1666 18.1846 41.5037 18.6519 40.7719 18.9621C39.5717 19.47 39.1854 20.2359 39.2254 21.5511C39.342 25.1587 39.2648 28.7717 39.2682 32.382C39.2682 32.5778 39.2185 32.7809 39.3461 33.0003Z" fill="#BF8E31"/>
<path d="M38.5572 22.5352C38.0151 22.8006 37.5088 23.0444 37.0066 23.2957C36.4472 23.5761 35.8968 23.874 35.3318 24.1443C35.0725 24.2682 34.94 24.4152 34.9414 24.7219C34.9531 27.2954 34.9483 29.8689 34.9476 32.4471C34.9476 32.8975 35.0766 33.0525 35.6153 32.9889C36.4534 32.8866 37.3129 32.9422 38.1627 32.9523C38.4938 32.9564 38.6214 32.8487 38.6207 32.5141C38.6145 29.2865 38.6207 26.0581 38.6207 22.8297C38.6076 22.73 38.5864 22.6315 38.5572 22.5352Z" fill="#BF8E31"/>
<path d="M34.3061 33.0005V25.4013C34.1137 25.251 33.9805 25.3539 33.8557 25.4108C32.8686 25.8632 31.885 26.3237 30.8979 26.7761C30.711 26.8615 30.6165 26.9759 30.6172 27.1913C30.6241 29.1112 30.6213 31.0318 30.6213 33.0005H34.3061Z" fill="#BF8E31"/>
<path d="M3.55855 33.0003H0V17.7627C0.738059 18.1846 1.40093 18.6519 2.13278 18.9621C3.33299 19.47 3.71927 20.2359 3.67926 21.5511C3.56269 25.1587 3.63994 28.7717 3.63649 32.382C3.63649 32.5778 3.68616 32.7809 3.55855 33.0003Z" fill="#BF8E31"/>
<path d="M4.34471 22.5352C4.88687 22.8006 5.39317 23.0444 5.89532 23.2957C6.45473 23.5761 7.00517 23.874 7.57009 24.1443C7.82945 24.2682 7.96188 24.4152 7.96051 24.7219C7.94878 27.2954 7.95361 29.8689 7.9543 32.4471C7.9543 32.8975 7.82531 33.0525 7.2866 32.9889C6.44852 32.8866 5.58906 32.9422 4.73926 32.9523C4.40817 32.9564 4.28056 32.8487 4.28125 32.5141C4.28746 29.2865 4.28125 26.0581 4.28125 22.8297C4.29435 22.73 4.31557 22.6315 4.34471 22.5352Z" fill="#BF8E31"/>
<path d="M8.59766 33.0005V25.4013C8.7901 25.251 8.92323 25.3539 9.04808 25.4108C10.0351 25.8632 11.0188 26.3237 12.0058 26.7761C12.1927 26.8615 12.2872 26.9759 12.2866 27.1913C12.2797 29.1112 12.2824 31.0318 12.2824 33.0005H8.59766Z" fill="#BF8E31"/>
<path d="M11.3359 8.68848H20.801V32.9421L20.6576 33.001L11.3359 8.68848Z" fill="#BF8E31"/>
<path d="M18.7456 32.0066C13.0149 24.2001 7.37811 16.5238 1.73438 8.83247C2.11858 8.58664 2.43588 8.67604 2.73386 8.67468C4.91768 8.66588 7.10358 8.70448 9.28672 8.64827C9.97097 8.63066 10.2179 8.9002 10.4311 9.46095C12.7478 15.556 15.0765 21.6463 17.4171 27.7319C17.8261 28.7992 18.2448 29.8618 18.6373 30.9352C18.7373 31.2088 18.9429 31.479 18.7456 32.0066Z" fill="#BF8E31"/>
<path d="M19.8388 0L10.7524 7.19285C9.70742 4.77176 8.69896 2.43735 7.64844 0H19.8388Z" fill="#BF8E31"/>
<path d="M12.1875 7.63545L20.8593 0.756836V7.63545H12.1875Z" fill="#BF8E31"/>
<path d="M1.65625 7.47617L6.63642 0.524414C7.66488 2.91435 8.62297 5.14108 9.62798 7.4782L1.65625 7.47617Z" fill="#BF8E31"/>
<path d="M31.4221 8.68848H21.957V32.9421L22.0998 33.001L31.4221 8.68848Z" fill="#BF8E31"/>
<path d="M24.0086 32.0066L41.0191 8.83247C40.6349 8.58664 40.3183 8.67604 40.0203 8.67468C37.8358 8.66588 35.6506 8.70448 33.4675 8.64827C32.7839 8.63066 32.537 8.9002 32.3238 9.46095C30.0062 15.556 27.6775 21.6463 25.3378 27.7319C24.9288 28.7992 24.5101 29.8618 24.1169 30.9352C24.0169 31.2088 23.8106 31.479 24.0086 32.0066Z" fill="#BF8E31"/>
<path d="M22.9141 0L31.9998 7.19285L35.1038 0H22.9141Z" fill="#BF8E31"/>
<path d="M30.5696 7.63545L21.8984 0.756836V7.63545H30.5696Z" fill="#BF8E31"/>
<path d="M41.1027 7.47617L36.1211 0.524414L33.1289 7.4782L41.1027 7.47617Z" fill="#BF8E31"/>
<path d="M126.066 8.53733C125.108 10.4302 124.143 12.3183 123.199 14.2172C122.854 14.9067 122.606 15.504 121.565 15.4972C120.556 15.4918 120.254 14.9663 119.903 14.2579C118.978 12.3732 118.015 10.5047 116.799 8.65855V16.5963C115.689 16.7451 114.564 16.7494 113.453 16.6092V2.47681C114.782 2.23301 116.094 2.38877 117.396 2.36777C117.983 2.35829 118.115 2.85402 118.303 3.24343C119.14 4.98052 119.949 6.72913 120.786 8.46487C120.993 8.89626 121.165 9.36558 121.683 9.74483C122.702 7.61156 123.74 5.52975 124.685 3.40867C125.025 2.64679 125.444 2.29192 126.309 2.34272C127.344 2.40367 128.392 2.35694 129.54 2.35694V16.6262H126.388V8.62198L126.066 8.53733Z" fill="#BF8E31"/>
<path d="M166.001 16.658H162.664V2.58379C164.894 1.92485 165.561 2.12396 166.923 3.87053C168.736 6.19546 170.551 8.51903 172.632 11.1846V2.57296C173.837 2.19168 174.896 2.40094 176.033 2.39349V16.5828C174.192 16.8774 172.63 16.9424 171.437 15.078C170.136 13.0463 168.512 11.2103 167.023 9.29513C166.788 8.99309 166.64 8.58675 166.003 8.47298L166.001 16.658Z" fill="#BF8E31"/>
<path d="M56.7695 16.6922V2.41352C59.3148 2.38507 61.8007 2.13044 64.2736 2.58215C67.8756 3.24109 69.9794 5.82066 69.9629 9.5102C69.9463 13.2289 67.8646 15.7691 64.2584 16.4403C63.5907 16.5642 62.9085 16.6685 62.2305 16.6814C60.4619 16.7146 58.6912 16.6922 56.7695 16.6922ZM60.0411 13.8004C62.1794 13.7219 64.3405 14.0808 65.8083 12.1074C66.843 10.717 66.8602 8.45033 65.8773 7.02815C64.4288 4.93349 62.2277 5.26736 60.0384 5.22334L60.0411 13.8004Z" fill="#BF8E31"/>
<path d="M146.226 16.7965C141.956 16.8642 138.578 13.7294 138.49 9.62467C138.4 5.44143 141.722 2.03971 145.94 2.00043C150.404 1.95709 153.815 5.18341 153.844 9.48178C153.871 13.4971 150.503 16.7315 146.226 16.7965ZM150.402 9.42083C150.378 6.94149 148.455 4.91793 146.112 4.90913C143.769 4.90033 141.936 6.94082 141.964 9.49871C141.992 11.9543 143.903 14.005 146.131 13.9684C148.434 13.9325 150.425 11.8135 150.402 9.42083Z" fill="#BF8E31"/>
<path d="M185.805 16.6954V2.41058C188.462 2.37672 191.053 2.10108 193.611 2.65709C197.045 3.40204 199.06 6.04323 199 9.58852C198.938 13.2246 196.81 15.7743 193.306 16.4319C190.866 16.8904 188.412 16.6554 185.805 16.6954ZM189.091 13.7765C191.436 13.7426 193.765 14.0562 195.046 11.7448C195.958 10.1032 195.891 8.33836 194.728 6.82069C193.297 4.95086 191.184 5.23327 189.091 5.25291V13.7765Z" fill="#BF8E31"/>
<path d="M105.296 15.802C103.48 11.6709 101.619 7.54995 99.8664 3.38973C99.456 2.41588 98.8366 2.31294 97.962 2.34071C97.0225 2.37118 96.1617 2.20526 95.6616 3.41614C94.0889 7.2154 92.3686 10.9557 90.7269 14.7259C90.4669 15.3225 90.022 15.8711 90.0792 16.7101C90.907 16.7101 91.7202 16.6695 92.5259 16.723C93.1798 16.7677 93.6295 16.5334 93.7468 15.9334C94.0696 14.3141 94.9773 13.6497 96.2569 13.5482C96.3948 13.5369 96.5394 13.5321 96.6907 13.5339H96.6955C97.3405 13.4899 98.4048 13.4344 99.1222 13.4879C99.5898 13.4682 99.9982 13.5387 100.346 13.7066C100.936 13.9924 101.352 14.5593 101.598 15.4478C101.745 15.9794 101.874 16.7345 102.766 16.7162C103.657 16.698 104.553 16.7162 105.363 16.7162C105.591 16.2679 105.398 16.0377 105.296 15.802ZM96.1368 10.7052C96.4127 9.37102 97.1322 8.31183 97.675 6.86392C98.5097 8.22447 99.0691 9.34664 99.3995 10.6706C98.2862 10.8433 97.266 10.7675 96.1368 10.7052Z" fill="#BF8E31"/>
<path d="M82.0022 16.6306H78.8789V2.56456C78.9727 2.50361 79.0438 2.41964 79.1224 2.41151C82.2002 2.11488 82.2002 2.11556 82.2002 5.07708C82.2002 8.42733 82.2078 11.7816 82.196 15.1285C82.194 15.6073 82.3188 16.1112 82.0022 16.6306Z" fill="#BF8E31"/>
<path d="M68.1066 33.0245C66.7547 29.9465 65.3689 26.8814 64.0639 23.7837C63.759 23.0591 63.2975 22.9819 62.6464 23.0029C61.9469 23.0259 61.3061 22.9033 60.9337 23.8034C59.7611 26.6322 58.4822 29.4169 57.2599 32.2261C57.0661 32.6697 56.735 33.0787 56.7771 33.7031C57.3979 33.7031 57.9987 33.6726 58.5988 33.7126C59.0816 33.7458 59.4189 33.571 59.5079 33.1248C59.7479 31.9193 60.4232 31.4242 61.3758 31.3484C61.4807 31.3403 61.5883 31.3369 61.6993 31.3382C62.1822 31.3057 62.9719 31.2644 63.5065 31.3037C63.8192 31.2818 64.1324 31.338 64.417 31.4669C64.8557 31.6795 65.1661 32.1021 65.3496 32.7631C65.4586 33.1586 65.5565 33.7187 66.2187 33.7112C66.8809 33.7038 67.55 33.7112 68.1501 33.7112C68.326 33.3713 68.1839 33.1992 68.1066 33.0245ZM61.2875 29.232C61.4945 28.2392 62.0283 27.4502 62.4325 26.3721C63.0533 27.3879 63.4672 28.2209 63.7176 29.207C62.8878 29.333 62.1284 29.2767 61.2875 29.23V29.232Z" fill="#CDCDCD"/>
<path d="M110.294 33.0245C108.942 29.9465 107.556 26.8814 106.251 23.7837C105.947 23.0591 105.485 22.9819 104.834 23.0029C104.134 23.0259 103.494 22.9033 103.121 23.8034C101.949 26.6322 100.669 29.4169 99.4474 32.2261C99.2536 32.6697 98.9225 33.0787 98.9646 33.7031C99.5819 33.7031 100.186 33.6726 100.786 33.7126C101.273 33.7458 101.606 33.571 101.695 33.1248C101.935 31.9193 102.611 31.4242 103.563 31.3484C103.668 31.3403 103.776 31.3369 103.887 31.3382C104.37 31.3057 105.159 31.2644 105.693 31.3037C106.006 31.2819 106.32 31.338 106.605 31.4669C107.043 31.6795 107.354 32.1021 107.536 32.7631C107.646 33.1586 107.743 33.7187 108.406 33.7112C109.068 33.7038 109.738 33.7112 110.337 33.7112C110.516 33.3713 110.374 33.1992 110.294 33.0245ZM103.475 29.232C103.682 28.2392 104.216 27.4502 104.62 26.3721C105.241 27.3879 105.658 28.2209 105.904 29.207C105.077 29.333 104.318 29.2767 103.477 29.23L103.475 29.232Z" fill="#CDCDCD"/>
<path d="M88.4844 23.066H90.5785C91.0269 24.2349 90.5578 25.4682 90.902 26.6858H95.3249C95.7456 25.5467 95.3007 24.3155 95.6146 23.15C96.3264 22.9116 96.9941 23.0667 97.7715 23.0281V33.5441C97.0955 33.8211 96.392 33.704 95.5353 33.6017V28.9965H90.8151V33.4988C89.9729 33.8238 89.2728 33.6552 88.4878 33.6701L88.4844 23.066Z" fill="#CDCDCD"/>
<path d="M80.6278 29.5843C80.6278 30.4011 80.6278 31.1122 80.6278 31.8232C80.6278 33.8705 80.614 33.8813 78.3516 33.5658V23.1005C80.4899 23.1005 82.6199 22.9854 84.7265 23.1412C86.1101 23.2434 87.1241 24.6913 87.1786 26.1359C87.2317 27.5283 86.2584 28.8008 84.841 29.2444C83.52 29.6581 82.1295 29.2376 80.6278 29.5843ZM80.6671 27.2933C81.7246 27.2933 82.7164 27.3346 83.7021 27.279C84.3491 27.2425 84.8265 26.8727 84.7947 26.1731C84.7658 25.5494 84.3119 25.2385 83.7215 25.1769C83.231 25.1255 82.7316 25.1492 82.2357 25.1492C80.3788 25.1498 80.3126 25.2345 80.6671 27.2933Z" fill="#CDCDCD"/>
<path d="M69.3359 33.7169V23.3214C70.0678 23.0546 70.7348 23.1528 71.6039 23.2537V31.6879H76.6248C77.0256 32.3834 76.878 32.9936 76.8111 33.7196L69.3359 33.7169Z" fill="#CDCDCD"/>
</g>
<defs>
<clipPath id="clip0_1073_8817">
<rect width="199" height="33" fill="white"/>
</clipPath>
</defs>
</svg>
