<svg width="30" height="24" viewBox="0 0 30 24" fill="none" xmlns="http://www.w3.org/2000/svg">
<path d="M29.9425 4.86523L19.42 13.8845C18.2467 14.8876 16.6572 15.451 15 15.451C13.3428 15.451 11.7533 14.8876 10.58 13.8845L0.0575 4.86523C0.04 5.03452 0 5.18773 0 5.35595V18.2131C0.00198482 19.6334 0.661102 20.995 1.83277 21.9993C3.00445 23.0036 4.593 23.5685 6.25 23.5702H23.75C25.407 23.5685 26.9955 23.0036 28.1672 21.9993C29.3389 20.995 29.998 19.6334 30 18.2131V5.35595C30 5.18773 29.96 5.03452 29.9425 4.86523Z" fill="white"/>
<path d="M17.6522 12.3707L29.0697 2.58322C28.5166 1.79713 27.7365 1.14647 26.8047 0.693997C25.8728 0.241525 24.8207 0.00250786 23.7497 0H6.24969C5.17872 0.00250786 4.12656 0.241525 3.19472 0.693997C2.26288 1.14647 1.48279 1.79713 0.929688 2.58322L12.3472 12.3707C13.0517 12.9721 14.0054 13.3098 14.9997 13.3098C15.994 13.3098 16.9477 12.9721 17.6522 12.3707Z" fill="white"/>
</svg>
