<svg width="43" height="33" viewBox="0 0 43 33" fill="none" xmlns="http://www.w3.org/2000/svg">
<path d="M39.3461 33.0003H42.9047V17.7627C42.1666 18.1846 41.5037 18.6519 40.7719 18.9621C39.5717 19.47 39.1854 20.2359 39.2254 21.5511C39.342 25.1587 39.2648 28.7717 39.2682 32.382C39.2682 32.5778 39.2185 32.7809 39.3461 33.0003Z" fill="#BF8E31"/>
<path d="M38.5572 22.5352C38.0151 22.8006 37.5088 23.0444 37.0066 23.2957C36.4472 23.5761 35.8968 23.874 35.3318 24.1443C35.0725 24.2682 34.94 24.4152 34.9414 24.7219C34.9531 27.2954 34.9483 29.8689 34.9476 32.4471C34.9476 32.8975 35.0766 33.0525 35.6153 32.9889C36.4534 32.8866 37.3129 32.9422 38.1627 32.9523C38.4938 32.9564 38.6214 32.8487 38.6207 32.5141C38.6145 29.2865 38.6207 26.0581 38.6207 22.8297C38.6076 22.73 38.5864 22.6315 38.5572 22.5352Z" fill="#BF8E31"/>
<path d="M34.3061 33.0005V25.4013C34.1137 25.251 33.9805 25.3539 33.8557 25.4108C32.8686 25.8632 31.885 26.3237 30.8979 26.7761C30.711 26.8615 30.6165 26.9759 30.6172 27.1913C30.6241 29.1112 30.6213 31.0318 30.6213 33.0005H34.3061Z" fill="#BF8E31"/>
<path d="M3.55855 33.0003H0V17.7627C0.738059 18.1846 1.40093 18.6519 2.13278 18.9621C3.33299 19.47 3.71927 20.2359 3.67926 21.5511C3.56269 25.1587 3.63994 28.7717 3.63649 32.382C3.63649 32.5778 3.68616 32.7809 3.55855 33.0003Z" fill="#BF8E31"/>
<path d="M4.34471 22.5352C4.88687 22.8006 5.39317 23.0444 5.89532 23.2957C6.45473 23.5761 7.00517 23.874 7.57009 24.1443C7.82945 24.2682 7.96188 24.4152 7.96051 24.7219C7.94878 27.2954 7.95361 29.8689 7.9543 32.4471C7.9543 32.8975 7.82531 33.0525 7.2866 32.9889C6.44852 32.8866 5.58906 32.9422 4.73926 32.9523C4.40817 32.9564 4.28056 32.8487 4.28125 32.5141C4.28746 29.2865 4.28125 26.0581 4.28125 22.8297C4.29435 22.73 4.31557 22.6315 4.34471 22.5352Z" fill="#BF8E31"/>
<path d="M8.59766 33.0005V25.4013C8.7901 25.251 8.92323 25.3539 9.04808 25.4108C10.0351 25.8632 11.0188 26.3237 12.0058 26.7761C12.1927 26.8615 12.2872 26.9759 12.2866 27.1913C12.2797 29.1112 12.2824 31.0318 12.2824 33.0005H8.59766Z" fill="#BF8E31"/>
<path d="M11.3359 8.68848H20.801V32.9421L20.6576 33.001L11.3359 8.68848Z" fill="#BF8E31"/>
<path d="M18.7456 32.0066C13.0149 24.2001 7.37811 16.5238 1.73438 8.83247C2.11858 8.58664 2.43588 8.67604 2.73386 8.67468C4.91768 8.66588 7.10358 8.70448 9.28672 8.64827C9.97097 8.63066 10.2179 8.9002 10.4311 9.46095C12.7478 15.556 15.0765 21.6463 17.4171 27.7319C17.8261 28.7992 18.2448 29.8618 18.6373 30.9352C18.7373 31.2088 18.9429 31.479 18.7456 32.0066Z" fill="#BF8E31"/>
<path d="M19.8388 0L10.7524 7.19285C9.70742 4.77176 8.69896 2.43735 7.64844 0H19.8388Z" fill="#BF8E31"/>
<path d="M12.1875 7.63545L20.8593 0.756836V7.63545H12.1875Z" fill="#BF8E31"/>
<path d="M1.65625 7.47617L6.63642 0.524414C7.66488 2.91435 8.62297 5.14108 9.62798 7.4782L1.65625 7.47617Z" fill="#BF8E31"/>
<path d="M31.4221 8.68848H21.957V32.9421L22.0998 33.001L31.4221 8.68848Z" fill="#BF8E31"/>
<path d="M24.0086 32.0066L41.0191 8.83247C40.6349 8.58664 40.3183 8.67604 40.0203 8.67468C37.8358 8.66588 35.6506 8.70448 33.4675 8.64827C32.7839 8.63066 32.537 8.9002 32.3238 9.46095C30.0062 15.556 27.6775 21.6463 25.3378 27.7319C24.9288 28.7992 24.5101 29.8618 24.1169 30.9352C24.0169 31.2088 23.8106 31.479 24.0086 32.0066Z" fill="#BF8E31"/>
<path d="M22.9141 0L31.9998 7.19285L35.1038 0H22.9141Z" fill="#BF8E31"/>
<path d="M30.5696 7.63545L21.8984 0.756836V7.63545H30.5696Z" fill="#BF8E31"/>
<path d="M41.1027 7.47617L36.1211 0.524414L33.1289 7.4782L41.1027 7.47617Z" fill="#BF8E31"/>
</svg>
