<svg width="24" height="24" viewBox="0 0 24 24" fill="none" xmlns="http://www.w3.org/2000/svg">
<path d="M18.1107 7.4398C17.6679 7.17241 17.0923 7.17241 16.6052 7.4398L13.1513 9.48985L10.8044 10.8268L7.35055 12.8769C6.90775 13.1443 6.3321 13.1443 5.84502 12.8769L3.09963 11.2725C2.65683 11.0051 2.34686 10.5149 2.34686 9.98007V6.81588C2.34686 6.28109 2.61255 5.79086 3.09963 5.52346L5.80074 3.96365C6.24354 3.69625 6.81919 3.69625 7.30627 3.96365L10.0074 5.52346C10.4502 5.79086 10.7601 6.28109 10.7601 6.81588V8.86592L13.107 7.48437V5.43433C13.107 4.89954 12.8413 4.40931 12.3542 4.14191L7.35055 1.20055C6.90775 0.933151 6.3321 0.933151 5.84502 1.20055L0.752768 4.14191C0.265683 4.40931 0 4.89954 0 5.43433V11.3616C0 11.8964 0.265683 12.3866 0.752768 12.654L5.84502 15.5954C6.28782 15.8628 6.86347 15.8628 7.35055 15.5954L10.8044 13.5899L13.1513 12.2084L16.6052 10.2029C17.048 9.93551 17.6236 9.93551 18.1107 10.2029L20.8118 11.7627C21.2546 12.0301 21.5646 12.5203 21.5646 13.0551V16.2193C21.5646 16.7541 21.2989 17.2444 20.8118 17.5117L18.1107 19.1161C17.6679 19.3835 17.0923 19.3835 16.6052 19.1161L13.9041 17.5563C13.4613 17.2889 13.1513 16.7987 13.1513 16.2639V14.2139L10.8044 15.5954V17.6454C10.8044 18.1802 11.0701 18.6705 11.5572 18.9379L16.6494 21.8792C17.0923 22.1466 17.6679 22.1466 18.155 21.8792L23.2472 18.9379C23.69 18.6705 24 18.1802 24 17.6454V11.7182C24 11.1834 23.7343 10.6931 23.2472 10.4257L18.1107 7.4398Z" fill="#8247E5"/>
</svg>
