<svg width="24" height="24" viewBox="0 0 24 24" fill="none" xmlns="http://www.w3.org/2000/svg">
<g clip-path="url(#clip0_1073_11003)">
<path d="M21 5.25V21.75M3 2.25V18.75V2.25ZM12 14.2504V21.75V14.2504ZM12 2.25V9.75037V2.25Z" stroke="#BF8E31" stroke-width="2" stroke-miterlimit="10" stroke-linecap="round" stroke-linejoin="round"/>
<path d="M3 23.25C4.24264 23.25 5.25 22.2426 5.25 21C5.25 19.7574 4.24264 18.75 3 18.75C1.75736 18.75 0.75 19.7574 0.75 21C0.75 22.2426 1.75736 23.25 3 23.25Z" stroke="#BF8E31" stroke-width="2" stroke-miterlimit="10" stroke-linecap="round" stroke-linejoin="round"/>
<path d="M21 5.25C22.2426 5.25 23.25 4.24264 23.25 3C23.25 1.75736 22.2426 0.75 21 0.75C19.7574 0.75 18.75 1.75736 18.75 3C18.75 4.24264 19.7574 5.25 21 5.25Z" stroke="#BF8E31" stroke-width="2" stroke-miterlimit="10" stroke-linecap="round" stroke-linejoin="round"/>
<path d="M12 14.25C13.2426 14.25 14.25 13.2426 14.25 12C14.25 10.7574 13.2426 9.75 12 9.75C10.7574 9.75 9.75 10.7574 9.75 12C9.75 13.2426 10.7574 14.25 12 14.25Z" stroke="#BF8E31" stroke-width="2" stroke-miterlimit="10" stroke-linecap="round" stroke-linejoin="round"/>
</g>
<defs>
<clipPath id="clip0_1073_11003">
<rect width="24" height="24" fill="white"/>
</clipPath>
</defs>
</svg>
