<svg width="18" height="18" viewBox="0 0 18 18" fill="none" xmlns="http://www.w3.org/2000/svg">
<path fill-rule="evenodd" clip-rule="evenodd" d="M0.240494 4.287L8.76149 8.923C8.90849 9.003 9.09049 9.003 9.23849 8.923L17.7595 4.287C18.1025 4.1 18.0725 3.622 17.7075 3.475L9.18749 0.036C9.06749 -0.012 8.93149 -0.012 8.81149 0.036L0.291494 3.475C-0.0725059 3.622 -0.102506 4.1 0.240494 4.287ZM17.7082 7.65598L15.8782 6.87598L9.23924 10.488C9.09124 10.568 8.90924 10.568 8.76124 10.488L2.12224 6.87598L0.292242 7.65598C-0.0727584 7.81098 -0.102758 8.31698 0.241242 8.51398L8.76124 13.411C8.90924 13.496 9.09124 13.496 9.23924 13.411L17.7592 8.51398C18.1032 8.31698 18.0732 7.81098 17.7082 7.65598ZM16.1512 11.4229L17.7082 12.0969C18.0732 12.2549 18.1032 12.7679 17.7592 12.9679L9.23924 17.9359C9.09124 18.0219 8.90924 18.0219 8.76124 17.9359L0.241242 12.9679C-0.102758 12.7679 -0.0727584 12.2549 0.292242 12.0969L1.84924 11.4229L8.76124 15.1839C8.90924 15.2639 9.09124 15.2639 9.23924 15.1839L16.1512 11.4229Z" fill="#C7CADB"/>
</svg>
