<svg width="30" height="31" viewBox="0 0 30 31" fill="none" xmlns="http://www.w3.org/2000/svg">
<path d="M27.6852 27.7072L28.8227 26.3959C29.5467 25.6696 29.9532 24.6859 29.9532 23.6603C29.9532 22.6348 29.5467 21.651 28.8227 20.9247C28.7839 20.8859 25.7764 18.5722 25.7764 18.5722C25.0546 17.8851 24.0958 17.5025 23.0993 17.5039C22.1028 17.5053 21.1451 17.8906 20.4252 18.5797L18.0427 20.5872C16.0979 19.7823 14.3313 18.6012 12.8443 17.1116C11.3573 15.622 10.1792 13.8534 9.37768 11.9072L11.3777 9.5322C12.0673 8.81241 12.453 7.85454 12.4547 6.8577C12.4563 5.86086 12.0737 4.90173 11.3864 4.1797C11.3864 4.1797 9.07018 1.17595 9.03143 1.1372C8.31824 0.419385 7.35128 0.0109771 6.33946 0.000218061C5.32764 -0.010541 4.35221 0.377212 3.62392 1.0797L2.18642 2.3297C-6.30608 12.1822 11.9814 30.3284 22.1589 30.0022C23.1867 30.0081 24.2052 29.8081 25.1543 29.414C26.1035 29.0198 26.964 28.4394 27.6852 27.7072Z" fill="white"/>
</svg>
