<svg width="32" height="26" viewBox="0 0 32 26" fill="none" xmlns="http://www.w3.org/2000/svg">
<path d="M31.3606 3.43535C30.2182 3.93647 29.0009 4.26863 27.7318 4.42991C29.0374 3.65039 30.0339 2.42543 30.5024 0.948949C29.2851 1.67471 27.9411 2.18735 26.5088 2.47343C25.3529 1.24271 23.7056 0.480469 21.9085 0.480469C18.4217 0.480469 15.6147 3.31055 15.6147 6.77999C15.6147 7.27919 15.6569 7.75919 15.7606 8.21615C10.5248 7.96079 5.89182 5.45135 2.7795 1.62863C2.23614 2.57135 1.91743 3.65039 1.91743 4.81199C1.91743 6.99311 3.04062 8.92655 4.71486 10.0459C3.70302 10.0267 2.71038 9.73295 1.86942 9.27023C1.86942 9.28943 1.86942 9.31439 1.86942 9.33935C1.86942 12.3998 4.05246 14.9419 6.91518 15.5275C6.40254 15.6677 5.84382 15.7349 5.26398 15.7349C4.86078 15.7349 4.45374 15.7118 4.07166 15.6273C4.88766 18.1214 7.20319 19.955 9.95647 20.0145C7.81375 21.6907 5.09311 22.7006 2.14783 22.7006C1.63135 22.7006 1.13598 22.6776 0.640625 22.6142C3.43038 24.4133 6.73663 25.4405 10.3021 25.4405C21.8912 25.4405 28.2272 15.8405 28.2272 7.51919C28.2272 7.24079 28.2176 6.97199 28.2041 6.70511C29.4541 5.81807 30.5043 4.71023 31.3606 3.43535Z" fill="#DCA536"/>
</svg>
