<svg width="120" height="88" viewBox="0 0 120 88" fill="none" xmlns="http://www.w3.org/2000/svg">
<path d="M93.7638 87.6566H74.3686H69.1459H68.018V61.6411H76.5264C78.6841 61.6411 79.9591 59.1891 78.6841 57.4237L62.1332 34.5222C61.0789 33.051 58.8966 33.051 57.8423 34.5222L41.2914 57.4237C40.0163 59.1891 41.2669 61.6411 43.4491 61.6411H51.9575V87.6566H50.8296H45.6069H23.1222C10.2493 86.9456 0 74.9063 0 61.8618C0 52.863 4.87944 45.0167 12.1128 40.7747C11.4508 38.9848 11.1075 37.0722 11.1075 35.0616C11.1075 25.8667 18.537 18.4372 27.7319 18.4372C29.718 18.4372 31.6306 18.7805 33.4205 19.4425C38.7413 8.16338 50.2166 0.341553 63.5554 0.341553C80.8173 0.366073 95.0388 13.5823 96.6571 30.4274C109.922 32.7077 120 44.9922 120 58.8949C120 73.7539 108.427 86.6268 93.7638 87.6566Z" fill="#D0D0D0"/>
</svg>
