<svg width="40" height="25" viewBox="0 0 40 25" fill="none"
    xmlns="http://www.w3.org/2000/svg">
    <path d="M8.19166 5.3134C14.7132 -0.804988 25.2866 -0.804988 31.8081 5.3134L32.593 6.04976C32.919 6.35568 32.919 6.85167 32.593 7.15759L29.9081 9.67653C29.745 9.82949 29.4807 9.82949 29.3177 9.67653L28.2376 8.66321C23.688 4.39487 16.3117 4.39487 11.7622 8.66321L10.6055 9.74839C10.4425 9.90135 10.1781 9.90135 10.0151 9.74839L7.33019 7.22945C7.00411 6.92353 7.00411 6.42754 7.33019 6.12162L8.19166 5.3134ZM37.3607 10.5228L39.7503 12.7647C40.0764 13.0706 40.0764 13.5666 39.7503 13.8725L28.9756 23.9814C28.6495 24.2873 28.1208 24.2873 27.7948 23.9814C27.7948 23.9814 27.7948 23.9814 27.7948 23.9814L20.1475 16.8068C20.066 16.7303 19.9338 16.7303 19.8523 16.8068C19.8523 16.8068 19.8523 16.8068 19.8523 16.8068L12.2053 23.9814C11.8792 24.2873 11.3505 24.2873 11.0244 23.9814C11.0244 23.9814 11.0244 23.9814 11.0244 23.9814L0.249439 13.8724C-0.0766359 13.5665 -0.0766359 13.0705 0.249439 12.7646L2.639 10.5227C2.96508 10.2168 3.49375 10.2168 3.81983 10.5227L11.4672 17.6973C11.5487 17.7738 11.6808 17.7738 11.7624 17.6973C11.7624 17.6973 11.7624 17.6973 11.7624 17.6973L19.4093 10.5227C19.7354 10.2168 20.2641 10.2168 20.5901 10.5227C20.5902 10.5227 20.5902 10.5227 20.5902 10.5227L28.2375 17.6973C28.319 17.7738 28.4512 17.7738 28.5327 17.6973L36.1799 10.5228C36.506 10.2169 37.0346 10.2169 37.3607 10.5228Z" fill="#3B99FC"/>
</svg>
