<svg width="20" height="21" viewBox="0 0 20 21" fill="none"
    xmlns="http://www.w3.org/2000/svg">
    <path d="M10.0006 11.8655C10.755 11.8655 11.3665 11.254 11.3665 10.4996C11.3665 9.7453 10.755 9.13379 10.0006 9.13379C9.24628 9.13379 8.63477 9.7453 8.63477 10.4996C8.63477 11.254 9.24628 11.8655 10.0006 11.8655Z" fill="url(#paint0_linear_2192_32625)"/>
    <path d="M19.0244 9.52439H18.3902C17.9512 5.67073 14.878 2.54878 10.9756 2.10976V1.47561C10.9756 0.939024 10.5366 0.5 10 0.5C9.46342 0.5 9.02439 0.939024 9.02439 1.47561V2.10976C5.17073 2.54878 2.04878 5.67073 1.60976 9.52439H0.97561C0.439024 9.52439 0 9.96342 0 10.5C0 11.0366 0.439024 11.4756 0.97561 11.4756H1.60976C2.04878 15.3293 5.12195 18.4512 9.02439 18.8902V19.5244C9.02439 20.061 9.46342 20.5 10 20.5C10.5366 20.5 10.9756 20.061 10.9756 19.5244V18.8902C14.8293 18.4512 17.9512 15.378 18.3902 11.4756H19.0244C19.561 11.4756 20 11.0366 20 10.5C20 9.96342 19.561 9.52439 19.0244 9.52439ZM13.4634 11.4756H16.3902C15.9512 14.2561 13.7561 16.5 10.9756 16.8902V13.9634C10.9756 13.4268 10.5366 12.9878 10 12.9878C9.46342 12.9878 9.02439 13.4268 9.02439 13.9634V16.8902C6.2439 16.4512 4 14.2561 3.60976 11.4756H6.53659C7.07317 11.4756 7.5122 11.0366 7.5122 10.5C7.5122 9.96342 7.07317 9.52439 6.53659 9.52439H3.60976C4.04878 6.7439 6.2439 4.5 9.02439 4.10976V7.03659C9.02439 7.57317 9.46342 8.0122 10 8.0122C10.5366 8.0122 10.9756 7.57317 10.9756 7.03659V4.10976C13.7561 4.54878 16 6.7439 16.3902 9.52439H13.4634C12.9268 9.52439 12.4878 9.96342 12.4878 10.5C12.4878 11.0366 12.9268 11.4756 13.4634 11.4756Z" fill="url(#paint1_linear_2192_32625)"/>
    <defs>
        <linearGradient id="paint0_linear_2192_32625" x1="8.63477" y1="10.4998" x2="11.3667" y2="10.4998" gradientUnits="userSpaceOnUse">
            <stop stop-color="#FF193D"/>
            <stop offset="0.505208" stop-color="#FF8686"/>
            <stop offset="1" stop-color="#FF193D"/>
        </linearGradient>
        <linearGradient id="paint1_linear_2192_32625" x1="0" y1="10.5013" x2="20.002" y2="10.5013" gradientUnits="userSpaceOnUse">
            <stop stop-color="#FF193D"/>
            <stop offset="0.505208" stop-color="#FF8686"/>
            <stop offset="1" stop-color="#FF193D"/>
        </linearGradient>
    </defs>
</svg>
