<svg width="18" height="18" viewBox="0 0 18 18" fill="none" xmlns="http://www.w3.org/2000/svg">
<path fill-rule="evenodd" clip-rule="evenodd" d="M13.167 0.666016C13.6272 0.666016 14.0003 1.03911 14.0003 1.49935V2.33268H14.8337C16.2144 2.33268 17.3337 3.45197 17.3337 4.83268V14.8327C17.3337 16.2134 16.2144 17.3327 14.8337 17.3327H3.16699C1.78628 17.3327 0.666992 16.2134 0.666992 14.8327V4.83268C0.666992 3.45197 1.78628 2.33268 3.16699 2.33268H4.00033V1.49935C4.00033 1.03911 4.37342 0.666016 4.83366 0.666016C5.2939 0.666016 5.66699 1.03911 5.66699 1.49935V2.33268H12.3337V1.49935C12.3337 1.03911 12.7068 0.666016 13.167 0.666016ZM2.33366 8.99935V14.8327C2.33366 15.2929 2.70675 15.666 3.16699 15.666H14.8337C15.2939 15.666 15.667 15.2929 15.667 14.8327V8.99935H2.33366ZM2.33366 7.33268H15.667V4.83268C15.667 4.37244 15.2939 3.99935 14.8337 3.99935H14.0003V4.83268C14.0003 5.29292 13.6272 5.66602 13.167 5.66602C12.7068 5.66602 12.3337 5.29292 12.3337 4.83268V3.99935H5.66699V4.83268C5.66699 5.29292 5.2939 5.66602 4.83366 5.66602C4.37342 5.66602 4.00033 5.29292 4.00033 4.83268V3.99935H3.16699C2.70675 3.99935 2.33366 4.37244 2.33366 4.83268V7.33268Z" fill="#D0D0D0"/>
</svg>
